<svg width="81" height="80" viewBox="0 0 81 80" fill="none" xmlns="http://www.w3.org/2000/svg">
<g clip-path="url(#clip0_34_7114)">
<path d="M69.7379 12.2787C69.107 11.6275 68.2427 11.2579 67.3357 11.25C67.3267 11.25 67.3188 11.25 67.3109 11.25C66.414 11.25 65.5531 11.6061 64.9188 12.2416L64.5785 12.5818C63.276 13.8866 63.2591 15.9948 64.5413 17.321C70.4839 23.463 73.7582 31.552 73.7582 40.0973C73.7582 48.6438 70.485 56.7328 64.5413 62.8737C63.2557 64.201 63.2748 66.3148 64.583 67.6185L64.9244 67.9587C65.5577 68.5909 66.4162 68.9447 67.3109 68.9447C67.321 68.9447 67.3312 68.9447 67.3402 68.9447C68.245 68.9368 69.1081 68.5661 69.7379 67.917C76.9999 60.4207 80.9999 50.5413 80.9999 40.0973C80.9999 29.6545 76.9999 19.7751 69.7379 12.2787Z" fill="white"/>
<path d="M8.24282 40.0973C8.24282 31.5531 11.5161 23.4641 17.4597 17.321C18.7442 15.9948 18.7262 13.8832 17.4192 12.5785L17.0777 12.2382C16.4434 11.6049 15.5848 11.25 14.689 11.25C14.68 11.25 14.6699 11.25 14.6608 11.25C13.7549 11.2579 12.8907 11.6275 12.2608 12.2787C4.99887 19.7751 1 29.6545 1 40.0973C1 50.5413 4.99887 60.4207 12.262 67.9159C12.893 68.5672 13.7572 68.9368 14.6631 68.9447C14.6721 68.9447 14.6811 68.9447 14.6901 68.9447C15.5859 68.9447 16.4468 68.5897 17.08 67.9542L17.4214 67.6128C18.7262 66.308 18.7442 64.1987 17.4608 62.8725C11.5161 56.7317 8.24282 48.6427 8.24282 40.0973Z" fill="white"/>
<path d="M58.5897 25.2504C57.9576 24.598 57.0911 24.2284 56.183 24.2217C56.1762 24.2217 56.1683 24.2217 56.1616 24.2217C55.2613 24.2217 54.3982 24.5811 53.7638 25.22L53.5982 25.3868C52.3013 26.6927 52.2866 28.7963 53.5666 30.1203C56.1706 32.8098 57.6038 36.3535 57.6038 40.0966C57.6038 43.8408 56.1706 47.3845 53.5678 50.0729C52.2866 51.3969 52.3002 53.5006 53.5982 54.8065L53.7638 54.9732C54.3971 55.6121 55.2613 55.9715 56.1616 55.9715C56.1683 55.9715 56.1762 55.9715 56.183 55.9715C57.0911 55.9659 57.9576 55.5952 58.5897 54.9439C62.4658 50.9428 64.601 45.6707 64.601 40.0966C64.601 34.5236 62.4669 29.2515 58.5897 25.2504Z" fill="white"/>
<path d="M28.3942 25.3803L28.2274 25.2136C27.5942 24.5792 26.7333 24.2231 25.8376 24.2231C25.8286 24.2231 25.8195 24.2231 25.8105 24.2231C24.9046 24.2299 24.0404 24.6006 23.4094 25.2519C19.5345 29.2519 17.4004 34.524 17.4004 40.0981C17.4004 45.6722 19.5345 50.9454 23.4105 54.9454C24.0404 55.5955 24.9057 55.9651 25.8117 55.973C25.8207 55.973 25.8297 55.973 25.8376 55.973C26.7333 55.973 27.5942 55.6181 28.2274 54.9826L28.3942 54.8158C29.699 53.511 29.7159 51.4017 28.4336 50.0744C25.8308 47.3848 24.3964 43.8434 24.3964 40.0981C24.3964 36.355 25.8297 32.8113 28.4336 30.1217C29.717 28.7944 29.7001 26.684 28.3942 25.3803Z" fill="white"/>
<path d="M40.9997 47.2944C45.0446 47.2944 48.3237 44.0153 48.3237 39.9704C48.3237 35.9255 45.0446 32.6465 40.9997 32.6465C36.9548 32.6465 33.6758 35.9255 33.6758 39.9704C33.6758 44.0153 36.9548 47.2944 40.9997 47.2944Z" fill="white"/>
</g>
<defs>
<clipPath id="clip0_34_7114">
<rect width="80" height="80" fill="white" transform="translate(0.5)"/>
</clipPath>
</defs>
</svg>
