<svg width="80" height="58" viewBox="0 0 80 58" fill="none" xmlns="http://www.w3.org/2000/svg">
<path d="M68.7379 1.27873C68.107 0.627465 67.2427 0.257887 66.3357 0.25C66.3267 0.25 66.3188 0.25 66.3109 0.25C65.414 0.25 64.5531 0.606058 63.9188 1.24155L63.5785 1.58183C62.276 2.88662 62.2591 4.99479 63.5413 6.32099C69.4839 12.463 72.7582 20.552 72.7582 29.0973C72.7582 37.6438 69.485 45.7328 63.5413 51.8737C62.2557 53.201 62.2748 55.3148 63.583 56.6185L63.9244 56.9587C64.5577 57.5909 65.4162 57.9447 66.3109 57.9447C66.321 57.9447 66.3312 57.9447 66.3402 57.9447C67.245 57.9368 68.1081 57.5661 68.7379 56.917C75.9999 49.4207 79.9999 39.5413 79.9999 29.0973C79.9999 18.6545 75.9999 8.77507 68.7379 1.27873Z" fill="white"/>
<path d="M7.24282 29.0973C7.24282 20.5531 10.5161 12.4641 16.4597 6.32099C17.7442 4.99479 17.7262 2.88324 16.4192 1.57845L16.0777 1.23817C15.4434 0.604931 14.5848 0.25 13.689 0.25C13.68 0.25 13.6699 0.25 13.6608 0.25C12.7549 0.257887 11.8907 0.627465 11.2608 1.27873C3.99887 8.77507 0 18.6545 0 29.0973C0 39.5413 3.99887 49.4207 11.262 56.9159C11.893 57.5672 12.7572 57.9368 13.6631 57.9447C13.6721 57.9447 13.6811 57.9447 13.6901 57.9447C14.5859 57.9447 15.4468 57.5897 16.08 56.9542L16.4214 56.6128C17.7262 55.308 17.7442 53.1987 16.4608 51.8725C10.5161 45.7317 7.24282 37.6427 7.24282 29.0973Z" fill="white"/>
<path d="M57.5897 14.2504C56.9576 13.598 56.0911 13.2284 55.183 13.2217C55.1762 13.2217 55.1683 13.2217 55.1616 13.2217C54.2613 13.2217 53.3982 13.5811 52.7638 14.22L52.5982 14.3868C51.3013 15.6927 51.2866 17.7963 52.5666 19.1203C55.1706 21.8098 56.6038 25.3535 56.6038 29.0966C56.6038 32.8408 55.1706 36.3845 52.5678 39.0729C51.2866 40.3969 51.3002 42.5006 52.5982 43.8065L52.7638 43.9732C53.3971 44.6121 54.2613 44.9715 55.1616 44.9715C55.1683 44.9715 55.1762 44.9715 55.183 44.9715C56.0911 44.9659 56.9576 44.5952 57.5897 43.9439C61.4658 39.9428 63.601 34.6707 63.601 29.0966C63.601 23.5236 61.4669 18.2515 57.5897 14.2504Z" fill="white"/>
<path d="M27.3939 14.3803L27.2272 14.2136C26.594 13.5792 25.7331 13.2231 24.8373 13.2231C24.8283 13.2231 24.8193 13.2231 24.8103 13.2231C23.9044 13.2299 23.0401 13.6006 22.4092 14.2519C18.5342 18.2519 16.4001 23.524 16.4001 29.0981C16.4001 34.6722 18.5342 39.9454 22.4103 43.9454C23.0401 44.5955 23.9055 44.9651 24.8114 44.973C24.8204 44.973 24.8294 44.973 24.8373 44.973C25.7331 44.973 26.594 44.6181 27.2272 43.9826L27.3939 43.8158C28.6987 42.511 28.7156 40.4017 27.4334 39.0744C24.8306 36.3848 23.3962 32.8434 23.3962 29.0981C23.3962 25.355 24.8294 21.8113 27.4334 19.1217C28.7168 17.7944 28.6999 15.684 27.3939 14.3803Z" fill="white"/>
</svg>
