<svg width="81" height="80" viewBox="0 0 81 80" fill="none" xmlns="http://www.w3.org/2000/svg">
<path d="M19.3448 26.4063H61.6554V60.8849C61.6554 62.9332 59.9948 64.5938 57.949 64.5938H53.7111V75.0943C53.7111 77.7608 51.5842 79.9219 48.9587 79.9219C46.3265 79.9219 44.2028 77.7608 44.2028 75.0943V64.5938H36.8011V75.0943C36.8011 77.7608 34.67 79.9219 32.0446 79.9219C29.4198 79.9219 27.2889 77.7608 27.2889 75.0943V64.5938H23.0546C21.0084 64.5938 19.3446 62.9332 19.3446 60.8849L19.3448 26.4063ZM11.0534 26.1249C8.40121 26.1249 6.25293 28.3066 6.25293 30.9999V50.0526C6.25293 52.7427 8.40121 54.9282 11.0534 54.9282C13.7061 54.9282 15.8539 52.7427 15.8539 50.0526V30.9999C15.8539 28.3066 13.7061 26.1249 11.0534 26.1249ZM61.6556 22.9319H19.3448C19.867 16.9041 23.7771 11.7169 29.4061 8.7135L25.3832 2.80662C24.8407 2.01006 25.0454 0.923184 25.8436 0.38084C26.6407 -0.161504 27.7254 0.0447463 28.2706 0.840684L32.6551 7.28318C35.0861 6.44256 37.7248 5.9599 40.5001 5.9599C43.2787 5.9599 45.9176 6.44256 48.3484 7.28428L52.7329 0.843027C53.2714 0.0449025 54.3595 -0.161347 55.1567 0.380996C55.9548 0.92334 56.1595 2.01021 55.617 2.80678L51.5975 8.71365C57.2262 11.7152 61.1337 16.9024 61.6556 22.9319ZM33.9165 14.7415C33.9165 13.4488 32.8698 12.4004 31.5776 12.4004C30.2821 12.4004 29.2354 13.4488 29.2354 14.7415C29.2354 16.0335 30.2856 17.0815 31.5776 17.0815C32.8696 17.0815 33.9165 16.0335 33.9165 14.7415ZM52.0614 14.7415C52.0614 13.4488 51.0111 12.4004 49.7192 12.4004C48.4237 12.4004 47.3801 13.4488 47.3801 14.7415C47.3801 16.0335 48.4237 17.0815 49.7192 17.0815C51.0112 17.0815 52.0614 16.0335 52.0614 14.7415ZM69.9501 26.1182C67.3007 26.1182 65.1464 28.3032 65.1464 30.9966V50.056C65.1464 52.7494 67.3007 54.9351 69.9501 54.9351C72.6029 54.9351 74.7471 52.7496 74.7471 50.056V30.9966C74.7473 28.3032 72.6029 26.1182 69.9501 26.1182Z" fill="white"/>
</svg>
