<svg width="81" height="80" viewBox="0 0 81 80" fill="none" xmlns="http://www.w3.org/2000/svg">
<path d="M37.1468 6.27827C51.5765 4.07585 66.0337 2.00137 80.4908 0C80.5 12.6388 80.4908 25.2684 80.5 37.9072C66.052 37.9621 51.604 38.1814 37.1468 38.2271C37.1377 27.5714 37.1377 16.9248 37.1468 6.27827ZM0.5 11.3777C11.3658 9.70528 22.2783 8.26137 33.1899 6.8997C33.199 17.3818 33.199 27.8547 33.2082 38.3368C22.3058 38.3276 11.4024 38.4921 0.5 38.4647V11.3777ZM0.5 41.7638C11.3942 41.7272 22.2865 41.9008 33.1798 41.8826C33.1798 52.3921 33.2073 62.9015 33.1899 73.411C22.3058 71.8017 11.4024 70.3953 0.5 68.9239V41.7638ZM37.0827 42.1841H80.4908C80.5092 54.7864 80.4908 67.3886 80.4908 80C66.0611 77.8433 51.604 75.8419 37.1468 73.8871C37.1285 63.3219 37.101 52.7576 37.0827 42.1841Z" fill="white"/>
</svg>
