<svg width="21" height="20" viewBox="0 0 21 20" fill="none" xmlns="http://www.w3.org/2000/svg">
<path d="M10.5 2.5H4.66667C4.22464 2.5 3.80072 2.67559 3.48816 2.98816C3.17559 3.30072 3 3.72464 3 4.16667V15.8333C3 16.2754 3.17559 16.6993 3.48816 17.0118C3.80072 17.3244 4.22464 17.5 4.66667 17.5H16.3333C16.7754 17.5 17.1993 17.3244 17.5118 17.0118C17.8244 16.6993 18 16.2754 18 15.8333V10" stroke="white" stroke-width="2" stroke-linecap="round" stroke-linejoin="round"/>
<path d="M15.8132 2.18744C16.1447 1.85592 16.5944 1.66968 17.0632 1.66968C17.5321 1.66968 17.9817 1.85592 18.3132 2.18744C18.6448 2.51897 18.831 2.9686 18.831 3.43744C18.831 3.90629 18.6448 4.35592 18.3132 4.68744L10.8024 12.1991C10.6045 12.3968 10.3601 12.5415 10.0916 12.6199L7.6974 13.3199C7.62569 13.3409 7.54968 13.3421 7.47732 13.3236C7.40496 13.305 7.33892 13.2674 7.2861 13.2146C7.23328 13.1618 7.19564 13.0957 7.1771 13.0234C7.15856 12.951 7.15981 12.875 7.18073 12.8033L7.88073 10.4091C7.9595 10.1408 8.10451 9.89666 8.3024 9.69911L15.8132 2.18744Z" stroke="white" stroke-width="2" stroke-linecap="round" stroke-linejoin="round"/>
</svg>
